<svg width="14" height="14" viewBox="0 0 14 14" fill="none" xmlns="http://www.w3.org/2000/svg">
<path fill-rule="evenodd" clip-rule="evenodd" d="M7 0C6.35567 0 5.83333 0.522335 5.83333 1.16667V5.83333H1.16667C0.522334 5.83333 0 6.35567 0 7C0 7.64433 0.522335 8.16667 1.16667 8.16667H5.83333V12.8333C5.83333 13.4777 6.35567 14 7 14C7.64433 14 8.16667 13.4777 8.16667 12.8333V8.16667H12.8333C13.4777 8.16667 14 7.64433 14 7C14 6.35567 13.4777 5.83333 12.8333 5.83333H8.16667V1.16667C8.16667 0.522334 7.64433 0 7 0Z" fill="#F5BD27"/>
</svg>
