<svg width="52" height="52" viewBox="0 0 52 52" fill="none" xmlns="http://www.w3.org/2000/svg">
<path d="M24.8688 3.74414C24.2538 3.9574 23.8372 4.33928 23.5496 4.94929C23.4157 5.23694 23.3859 5.36092 23.3661 5.7676C23.3462 6.18915 23.3611 6.28338 23.4752 6.58095C23.6289 6.98762 23.8323 7.29015 24.11 7.53316C24.3332 7.72658 24.8589 8.0043 25.0077 8.0043C25.082 8.0043 25.092 8.06878 25.092 8.66391V9.32351L24.2637 9.37807C22.9098 9.4723 21.2682 9.79466 20.1276 10.1914C19.8895 10.2708 19.6366 10.3501 19.5671 10.365C19.1654 10.4344 17.0428 11.4313 16.2146 11.9322C15.8674 12.1454 15.1284 12.6612 14.5333 13.1076C13.1347 14.1639 11.8751 15.4881 10.6798 17.1743C10.1789 17.8786 9.93095 18.3001 9.38541 19.3862C8.24474 21.6428 7.53554 24.4349 7.5157 26.7262L7.51074 27.4205L25.6028 27.4354L43.6899 27.4453V27.237C43.6899 26.3939 43.5212 24.8912 43.313 23.8795C42.822 21.4493 41.9293 19.3217 40.5009 17.1793C40.1389 16.6387 39.8612 16.2667 39.7223 16.1378C39.6777 16.0981 39.4793 15.8749 39.2908 15.6418C38.8742 15.1409 37.8724 14.1491 37.1434 13.5142C35.6605 12.2248 33.2899 10.8957 31.3706 10.2856C29.6447 9.73515 28.1371 9.43758 26.6691 9.35823L26.0838 9.32848V8.68871V8.0539L26.2227 8.0043C26.8129 7.78609 27.289 7.38933 27.5568 6.87851C28.1619 5.75272 27.6213 4.2996 26.4112 3.79374C26.0888 3.65983 25.9847 3.64 25.6028 3.64C25.2953 3.64496 25.0771 3.67471 24.8688 3.74414ZM19.5622 12.3637C19.5324 12.3835 19.339 12.5224 19.1258 12.6612C18.7687 12.8993 18.243 13.3059 17.8016 13.6829C17.256 14.154 16.0459 15.4435 15.6194 16.0138C14.9003 16.971 14.7267 17.2537 13.9878 18.6423C13.6406 19.287 13.5861 19.4209 13.1744 20.5269C12.6785 21.8511 12.2272 23.7505 12.242 24.4597V24.673L11.8354 24.6531C11.2849 24.6184 9.95079 24.4597 9.90119 24.4201C9.81688 24.3457 10.5062 22.2032 10.898 21.3204C11.27 20.4773 12.3115 18.6076 12.5644 18.3199C12.6289 18.2505 12.7826 18.0373 12.9165 17.8488C13.3629 17.1991 13.9035 16.5593 14.6275 15.8204C15.917 14.4962 17.2511 13.5043 18.8679 12.6563C19.468 12.3438 19.6763 12.2545 19.5622 12.3637Z" fill="#F46F49"/>
<path d="M2.08008 28.9728C2.08008 29.0274 2.25862 29.2555 2.55123 29.568C2.80416 29.8407 3.44392 30.2028 3.74645 30.2474C3.8258 30.2573 4.11345 30.302 4.38622 30.3416C4.76314 30.4011 5.28884 30.421 6.54853 30.421H8.20995L8.32401 30.902C8.50255 31.6509 8.73069 32.2163 9.01834 32.5932C9.31094 32.9751 9.48948 33.1288 9.87136 33.3272L10.1392 33.471H25.563H40.9869L41.2845 33.352C41.9986 33.0644 42.6334 32.0626 42.8516 30.8673C42.8814 30.6888 42.931 30.5202 42.9558 30.4855C42.9855 30.4458 43.6154 30.421 45.2173 30.4061C47.1763 30.3863 47.4838 30.3714 47.8557 30.2871C48.3616 30.173 48.7335 30.0044 49.0757 29.7465C49.408 29.4936 49.7403 29.1018 49.7403 28.9629C49.7403 28.948 39.018 28.9331 25.9102 28.9331C12.8024 28.9331 2.08008 28.953 2.08008 28.9728Z" fill="#F46F49"/>
<path d="M20.4797 34.6911C19.8548 34.7853 19.3787 34.9093 18.7935 35.1176C18.4562 35.2416 18.1289 35.3507 18.0743 35.3606C18.0198 35.3705 17.7619 35.4598 17.504 35.559C15.9765 36.1392 15.3615 36.3673 14.6275 36.6203C14.1762 36.774 13.7299 36.9377 13.6307 36.9774L13.4521 37.0567L13.6158 37.7907C13.8489 38.8024 14.0473 39.6803 14.2556 40.563C14.3548 40.9697 14.4788 41.5301 14.5333 41.8029C14.8606 43.4147 15.2524 45.0513 15.3119 45.0513C15.3516 45.0513 15.8277 44.9373 16.3782 44.7984C17.3651 44.5504 17.3949 44.5455 18.2975 44.5256C18.8034 44.5108 21.4815 44.4116 24.2489 44.3074C29.5356 44.0991 29.5654 44.0991 30.3837 43.8313C30.8003 43.6974 31.7326 43.2511 31.8765 43.1171C31.9211 43.0725 32.7543 42.5071 33.7214 41.8575C34.6885 41.2078 35.5266 40.6374 35.5812 40.5878C35.6357 40.5382 36.4739 39.9679 37.441 39.3232C38.4081 38.6735 39.2115 38.128 39.2264 38.1081C39.2412 38.0932 39.4297 37.9544 39.6529 37.8006C40.3026 37.3444 40.4662 36.8931 40.1885 36.3326C39.9802 35.9111 39.4694 35.6581 39.023 35.7524C38.9288 35.7722 38.5668 35.916 38.2097 36.0747C37.8576 36.2285 37.431 36.407 37.2674 36.4715C37.1037 36.531 36.7566 36.6699 36.4987 36.779C36.2408 36.8881 35.1943 37.3196 34.1777 37.7411C33.161 38.1627 32.2435 38.5445 32.1443 38.5991C31.6831 38.8272 30.5424 39.1347 29.7042 39.2537C29.2976 39.3133 26.2773 39.3182 24.8093 39.2686C24.0654 39.2389 23.8769 39.219 23.7579 39.1446C23.4454 38.9562 23.3562 38.6289 23.5198 38.3015C23.6686 38.004 23.8471 37.9197 24.968 37.6171C28.4644 36.6748 28.5983 36.6352 28.8413 36.4021C29.3422 35.916 29.2033 35.0878 28.5685 34.7506L28.3503 34.6365L24.5514 34.6415C22.4635 34.6464 20.6285 34.6663 20.4797 34.6911Z" fill="#F46F49"/>
<path d="M10.2384 36.4516C9.91104 36.4864 9.41014 36.526 9.12249 36.5409C8.83484 36.5558 7.93718 36.6302 7.12879 36.7046L5.65088 36.8385V42.8592V48.88L5.78974 48.8602C5.86413 48.8453 6.53862 48.6667 7.28749 48.4634C8.03637 48.2601 8.76541 48.0716 8.89931 48.0419C9.03818 48.0121 9.52916 47.8832 9.99039 47.7542C11.627 47.3029 13.1 46.9012 13.1793 46.8863C13.1843 46.8863 13.2289 46.8863 13.2785 46.8863C13.3231 46.8863 13.3926 46.8665 13.4322 46.8417C13.5116 46.7921 13.4769 46.6334 12.4404 42.398C12.113 41.059 11.8502 39.9381 11.8502 39.8985C11.8502 39.8588 11.6568 39.0504 11.4187 38.0982C11.0765 36.7095 10.9773 36.3723 10.9128 36.3773C10.8682 36.3822 10.5657 36.4169 10.2384 36.4516Z" fill="#F46F49"/>
</svg>
