<svg width="28" height="28" viewBox="0 0 28 28" fill="none" xmlns="http://www.w3.org/2000/svg">
<path fill-rule="evenodd" clip-rule="evenodd" d="M17.7898 7.41021C18.0523 7.67275 18.1997 8.02878 18.1997 8.40001C18.1997 8.77124 18.0523 9.12727 17.7898 9.38981L13.1796 14L17.7898 18.6102C18.0448 18.8742 18.1859 19.2279 18.1827 19.595C18.1795 19.962 18.0323 20.3132 17.7727 20.5728C17.5132 20.8323 17.162 20.9796 16.795 20.9827C16.4279 20.9859 16.0742 20.8448 15.8102 20.5898L10.2102 14.9898C9.94773 14.7273 9.80029 14.3712 9.80029 14C9.80029 13.6288 9.94773 13.2727 10.2102 13.0102L15.8102 7.41021C16.0727 7.14775 16.4288 7.00031 16.8 7.00031C17.1712 7.00031 17.5273 7.14775 17.7898 7.41021Z" fill="#252A2D"/>
</svg>
