<svg width="20" height="20" viewBox="0 0 20 20" fill="none" xmlns="http://www.w3.org/2000/svg">
<path fill-rule="evenodd" clip-rule="evenodd" d="M5.29279 7.29308C5.48031 7.10561 5.73462 7.00029 5.99979 7.00029C6.26495 7.00029 6.51926 7.10561 6.70679 7.29308L9.99979 10.5861L13.2928 7.29308C13.385 7.19757 13.4954 7.12139 13.6174 7.06898C13.7394 7.01657 13.8706 6.98898 14.0034 6.98783C14.1362 6.98668 14.2678 7.01198 14.3907 7.06226C14.5136 7.11254 14.6253 7.18679 14.7192 7.28069C14.8131 7.37458 14.8873 7.48623 14.9376 7.60913C14.9879 7.73202 15.0132 7.8637 15.012 7.99648C15.0109 8.12926 14.9833 8.26048 14.9309 8.38249C14.8785 8.50449 14.8023 8.61483 14.7068 8.70708L10.7068 12.7071C10.5193 12.8946 10.265 12.9999 9.99979 12.9999C9.73462 12.9999 9.48031 12.8946 9.29279 12.7071L5.29279 8.70708C5.10532 8.51955 5 8.26525 5 8.00008C5 7.73492 5.10532 7.48061 5.29279 7.29308Z" fill="#252A2D"/>
</svg>
