<svg width="24" height="24" viewBox="0 0 24 24" fill="none" xmlns="http://www.w3.org/2000/svg">
<path fill-rule="evenodd" clip-rule="evenodd" d="M3.59961 20.4004C3.59961 20.0821 3.72604 19.7769 3.95108 19.5519C4.17612 19.3268 4.48135 19.2004 4.79961 19.2004H19.1996C19.5179 19.2004 19.8231 19.3268 20.0481 19.5519C20.2732 19.7769 20.3996 20.0821 20.3996 20.4004C20.3996 20.7186 20.2732 21.0239 20.0481 21.2489C19.8231 21.474 19.5179 21.6004 19.1996 21.6004H4.79961C4.48135 21.6004 4.17612 21.474 3.95108 21.2489C3.72604 21.0239 3.59961 20.7186 3.59961 20.4004ZM7.55121 11.152C7.77624 10.927 8.08141 10.8006 8.39961 10.8006C8.71781 10.8006 9.02298 10.927 9.24801 11.152L10.7996 12.7036V3.60039C10.7996 3.28213 10.926 2.97691 11.1511 2.75186C11.3761 2.52682 11.6813 2.40039 11.9996 2.40039C12.3179 2.40039 12.6231 2.52682 12.8481 2.75186C13.0732 2.97691 13.1996 3.28213 13.1996 3.60039V12.7036L14.7512 11.152C14.8619 11.0374 14.9943 10.946 15.1407 10.8831C15.2871 10.8202 15.4446 10.7871 15.6039 10.7857C15.7633 10.7843 15.9213 10.8147 16.0688 10.875C16.2162 10.9353 16.3502 11.0244 16.4629 11.1371C16.5756 11.2498 16.6647 11.3838 16.725 11.5312C16.7853 11.6787 16.8157 11.8367 16.8143 11.9961C16.8129 12.1554 16.7798 12.3129 16.7169 12.4593C16.654 12.6057 16.5626 12.7381 16.448 12.8488L12.848 16.4488C12.623 16.6738 12.3178 16.8001 11.9996 16.8001C11.6814 16.8001 11.3762 16.6738 11.1512 16.4488L7.55121 12.8488C7.32624 12.6238 7.19987 12.3186 7.19987 12.0004C7.19987 11.6822 7.32624 11.377 7.55121 11.152Z" fill="#F5BD27"/>
</svg>
