<svg width="151" height="150" viewBox="0 0 151 150" fill="none" xmlns="http://www.w3.org/2000/svg">
<path d="M75.5 150C116.921 150 150.5 116.421 150.5 75C150.5 33.5786 116.921 0 75.5 0C34.0786 0 0.5 33.5786 0.5 75C0.5 116.421 34.0786 150 75.5 150Z" fill="url(#paint0_linear_365_3941)"/>
<path d="M120.5 150H30.5V53C34.742 52.9952 38.8089 51.308 41.8084 48.3085C44.808 45.3089 46.4952 41.242 46.5 37H104.5C104.496 39.1014 104.908 41.1828 105.713 43.1238C106.518 45.0648 107.7 46.8268 109.191 48.308C110.672 49.7991 112.434 50.9816 114.375 51.787C116.317 52.5924 118.398 53.0047 120.5 53V150Z" fill="white"/>
<path d="M75.5 102C88.7548 102 99.5 91.2548 99.5 78C99.5 64.7452 88.7548 54 75.5 54C62.2452 54 51.5 64.7452 51.5 78C51.5 91.2548 62.2452 102 75.5 102Z" fill="#F4D949"/>
<path d="M83.9853 89.3138L75.5 80.8286L67.0147 89.3138L64.1863 86.4854L72.6716 78.0001L64.1863 69.5148L67.0147 66.6864L75.5 75.1717L83.9853 66.6864L86.8137 69.5148L78.3284 78.0001L86.8137 86.4854L83.9853 89.3138Z" fill="white"/>
<path d="M88.5 108H62.5C60.8431 108 59.5 109.343 59.5 111C59.5 112.657 60.8431 114 62.5 114H88.5C90.1569 114 91.5 112.657 91.5 111C91.5 109.343 90.1569 108 88.5 108Z" fill="#FBF3DF"/>
<path d="M97.5 120H53.5C51.8431 120 50.5 121.343 50.5 123C50.5 124.657 51.8431 126 53.5 126H97.5C99.1569 126 100.5 124.657 100.5 123C100.5 121.343 99.1569 120 97.5 120Z" fill="#FBF3DF"/>
<defs>
<linearGradient id="paint0_linear_365_3941" x1="75.5" y1="0" x2="75.5" y2="150" gradientUnits="userSpaceOnUse">
<stop stop-color="#FAF8E3"/>
<stop offset="1" stop-color="#FFFBDA"/>
</linearGradient>
</defs>
</svg>
