<svg width="93" height="107" viewBox="0 0 93 107" fill="none" xmlns="http://www.w3.org/2000/svg">
<rect x="0.5" y="12.9907" width="92" height="93.0648" rx="11.871" fill="#F5BD27"/>
<line x1="24.9702" y1="48.3633" x2="68.0299" y2="48.3633" stroke="white" stroke-width="8.90323" stroke-linecap="round"/>
<line x1="24.9702" y1="64.5484" x2="68.0299" y2="64.5484" stroke="white" stroke-width="8.90323" stroke-linecap="round"/>
<line x1="24.9702" y1="80.7334" x2="68.0299" y2="80.7334" stroke="white" stroke-width="8.90323" stroke-linecap="round"/>
<rect x="22.4351" y="7.24072" width="48.1296" height="21.2963" rx="2.96774" fill="#F5BD27"/>
<path d="M62.8979 9.90278C62.8979 7.2764 61.1702 4.75759 58.095 2.90046C55.0197 1.04333 50.8488 1.98286e-07 46.4997 0C42.1507 -1.98286e-07 37.9797 1.04332 34.9045 2.90046C31.8292 4.75759 30.1016 7.2764 30.1016 9.90278L46.4997 9.90278H62.8979Z" fill="#F5BD27"/>
<rect x="32.5513" y="11.6616" width="30.1708" height="13.3499" rx="2.96774" fill="white"/>
<path d="M58.0086 13.3303C58.0086 11.6839 56.9256 10.1049 54.9978 8.94076C53.07 7.77658 50.4554 7.12256 47.7291 7.12256C45.0029 7.12256 42.3883 7.77658 40.4605 8.94075C38.5327 10.1049 37.4497 11.6839 37.4497 13.3303L47.7291 13.3303H58.0086Z" fill="white"/>
</svg>
