
<svg width="114" height="118" viewBox="0 0 114 118" fill="none" xmlns="http://www.w3.org/2000/svg">
<path d="M109.547 62.7891C109.547 48.2032 104.011 34.2147 94.1562 23.901C84.3018 13.5872 70.9363 7.79297 57 7.79297C43.0637 7.79297 29.6982 13.5872 19.8438 23.9009C9.9893 34.2147 4.45313 48.2032 4.45313 62.7891L57 62.7891H109.547Z" fill="#F5BD27"/>
<path d="M68.8008 15.0293C68.8008 11.0433 67.5575 7.22052 65.3444 4.40198C63.1313 1.58344 60.1298 3.00936e-07 57 0C53.8702 -3.00936e-07 50.8687 1.58344 48.6556 4.40198C46.4425 7.22052 45.1992 11.0433 45.1992 15.0293L57 15.0293H68.8008Z" fill="#F5BD27"/>
<rect y="57.4453" width="114" height="10.6875" rx="5.34375" fill="#F5BD27"/>
<path d="M92.291 35.5137C96.6328 41.6367 97.9688 45.1992 99.9727 53.1035" stroke="white" stroke-width="5" stroke-linecap="round"/>
<path d="M86.168 28.7227C86.7871 29.4194 86.4194 29.0516 87.1548 29.7871" stroke="white" stroke-width="5" stroke-linecap="round"/>
</svg>
