<svg width="64" height="64" viewBox="0 0 64 64" fill="none" xmlns="http://www.w3.org/2000/svg">
<path fill-rule="evenodd" clip-rule="evenodd" d="M32 64C49.6731 64 64 49.6731 64 32C64 14.3269 49.6731 0 32 0C14.3269 0 0 14.3269 0 32C0 49.6731 14.3269 64 32 64Z" fill="#F46F49"/>
<path fill-rule="evenodd" clip-rule="evenodd" d="M38.0967 25.9994C38.4767 25.5523 39.1472 25.4979 39.5944 25.878C40.0415 26.258 40.0958 26.9285 39.7158 27.3756L30.6845 38.0006C30.2985 38.4548 29.6146 38.5026 29.1691 38.1066L24.3878 33.8566C23.9493 33.4668 23.9098 32.7952 24.2996 32.3566C24.6895 31.918 25.361 31.8785 25.7996 32.2684L29.769 35.7967L38.0967 25.9994Z" fill="white"/>
</svg>
