<svg width="20" height="20" viewBox="0 0 20 20" fill="none" xmlns="http://www.w3.org/2000/svg">
<path d="M18.3327 6.25016C18.3327 4.64183 14.5993 3.3335 9.99935 3.3335C5.39935 3.3335 1.66602 4.64183 1.66602 6.25016C1.66602 7.7585 4.95768 9.0085 9.16602 9.15016V12.5002H7.79102C7.10768 12.5002 6.49935 12.9168 6.24102 13.5502L5.41602 15.6085C5.22435 16.1168 5.59102 16.6668 6.14102 16.6668C6.45768 16.6668 6.74102 16.4752 6.85768 16.1835L7.66602 14.1668H12.3327L13.141 16.1835C13.2577 16.4752 13.541 16.6668 13.8577 16.6668C14.4077 16.6668 14.7827 16.1168 14.5743 15.6085L13.7493 13.5502C13.4993 12.9168 12.8827 12.5002 12.2077 12.5002H10.8327V9.15016C15.041 9.0085 18.3327 7.7585 18.3327 6.25016Z" fill="#F46F49"/>
</svg>
