<svg width="20" height="20" viewBox="0 0 20 20" fill="none" xmlns="http://www.w3.org/2000/svg">
<path d="M18.3332 6.25016C18.3332 4.64183 14.5998 3.3335 9.99984 3.3335C5.39984 3.3335 1.6665 4.64183 1.6665 6.25016C1.6665 7.7585 4.95817 9.0085 9.1665 9.15016V12.5002H7.7915C7.10817 12.5002 6.49984 12.9168 6.2415 13.5502L5.4165 15.6085C5.22484 16.1168 5.5915 16.6668 6.1415 16.6668C6.45817 16.6668 6.7415 16.4752 6.85817 16.1835L7.6665 14.1668H12.3332L13.1415 16.1835C13.2582 16.4752 13.5415 16.6668 13.8582 16.6668C14.4082 16.6668 14.7832 16.1168 14.5748 15.6085L13.7498 13.5502C13.4998 12.9168 12.8832 12.5002 12.2082 12.5002H10.8332V9.15016C15.0415 9.0085 18.3332 7.7585 18.3332 6.25016Z" fill="#252A2D"/>
</svg>
