<svg width="100" height="100" viewBox="0 0 100 100" fill="none" xmlns="http://www.w3.org/2000/svg">
<path d="M91.6673 31.2503C91.6673 23.2087 73.0007 16.667 50.0007 16.667C27.0007 16.667 8.33398 23.2087 8.33398 31.2503C8.33398 38.792 24.7923 45.042 45.834 45.7503V62.5003H38.959C35.5423 62.5003 32.5007 64.5837 31.209 67.7503L27.084 78.042C26.1257 80.5836 27.959 83.3336 30.709 83.3336C32.2923 83.3336 33.709 82.3753 34.2923 80.917L38.334 70.8336H61.6673L65.709 80.917C66.2923 82.3753 67.709 83.3336 69.2923 83.3336C72.0423 83.3336 73.9173 80.5836 72.8757 78.042L68.7507 67.7503C67.5007 64.5837 64.4173 62.5003 61.0423 62.5003H54.1673V45.7503C75.209 45.042 91.6673 38.792 91.6673 31.2503Z" fill="#F5BD27"/>
</svg>
