<svg width="24" height="24" viewBox="0 0 24 24" fill="none" xmlns="http://www.w3.org/2000/svg">
<path fill-rule="evenodd" clip-rule="evenodd" d="M10.7996 2.40039C10.5768 2.40051 10.3585 2.46265 10.169 2.57985C9.9795 2.69706 9.8264 2.86469 9.72681 3.06399L8.85801 4.80039H4.79961C4.48135 4.80039 4.17612 4.92682 3.95108 5.15186C3.72604 5.37691 3.59961 5.68213 3.59961 6.00039C3.59961 6.31865 3.72604 6.62387 3.95108 6.84892C4.17612 7.07396 4.48135 7.20039 4.79961 7.20039V19.2004C4.79961 19.8369 5.05247 20.4474 5.50255 20.8974C5.95264 21.3475 6.56309 21.6004 7.19961 21.6004H16.7996C17.4361 21.6004 18.0466 21.3475 18.4967 20.8974C18.9468 20.4474 19.1996 19.8369 19.1996 19.2004V7.20039C19.5179 7.20039 19.8231 7.07396 20.0481 6.84892C20.2732 6.62387 20.3996 6.31865 20.3996 6.00039C20.3996 5.68213 20.2732 5.37691 20.0481 5.15186C19.8231 4.92682 19.5179 4.80039 19.1996 4.80039H15.1412L14.2724 3.06399C14.1728 2.86469 14.0197 2.69706 13.8302 2.57985C13.6408 2.46265 13.4224 2.40051 13.1996 2.40039H10.7996ZM8.39961 9.60039C8.39961 9.28213 8.52604 8.97691 8.75108 8.75186C8.97613 8.52682 9.28135 8.40039 9.59961 8.40039C9.91787 8.40039 10.2231 8.52682 10.4481 8.75186C10.6732 8.97691 10.7996 9.28213 10.7996 9.60039V16.8004C10.7996 17.1186 10.6732 17.4239 10.4481 17.6489C10.2231 17.874 9.91787 18.0004 9.59961 18.0004C9.28135 18.0004 8.97613 17.874 8.75108 17.6489C8.52604 17.4239 8.39961 17.1186 8.39961 16.8004V9.60039ZM14.3996 8.40039C14.0814 8.40039 13.7761 8.52682 13.5511 8.75186C13.326 8.97691 13.1996 9.28213 13.1996 9.60039V16.8004C13.1996 17.1186 13.326 17.4239 13.5511 17.6489C13.7761 17.874 14.0814 18.0004 14.3996 18.0004C14.7179 18.0004 15.0231 17.874 15.2481 17.6489C15.4732 17.4239 15.5996 17.1186 15.5996 16.8004V9.60039C15.5996 9.28213 15.4732 8.97691 15.2481 8.75186C15.0231 8.52682 14.7179 8.40039 14.3996 8.40039Z" fill="#EE5151"/>
</svg>
