<svg width="20" height="21" viewBox="0 0 20 21" fill="none" xmlns="http://www.w3.org/2000/svg">
<path fill-rule="evenodd" clip-rule="evenodd" d="M3 17.4998C3 17.2346 3.10536 16.9802 3.29289 16.7927C3.48043 16.6051 3.73478 16.4998 4 16.4998H16C16.2652 16.4998 16.5196 16.6051 16.7071 16.7927C16.8946 16.9802 17 17.2346 17 17.4998C17 17.765 16.8946 18.0194 16.7071 18.2069C16.5196 18.3944 16.2652 18.4998 16 18.4998H4C3.73478 18.4998 3.48043 18.3944 3.29289 18.2069C3.10536 18.0194 3 17.765 3 17.4998ZM6.293 7.20679C6.10553 7.01926 6.00021 6.76495 6.00021 6.49979C6.00021 6.23462 6.10553 5.98031 6.293 5.79279L9.293 2.79279C9.48053 2.60532 9.73484 2.5 10 2.5C10.2652 2.5 10.5195 2.60532 10.707 2.79279L13.707 5.79279C13.8892 5.98139 13.99 6.23399 13.9877 6.49619C13.9854 6.75838 13.8802 7.0092 13.6948 7.1946C13.5094 7.38001 13.2586 7.48518 12.9964 7.48746C12.7342 7.48974 12.4816 7.38894 12.293 7.20679L11 5.91379V13.4998C11 13.765 10.8946 14.0194 10.7071 14.2069C10.5196 14.3944 10.2652 14.4998 10 14.4998C9.73478 14.4998 9.48043 14.3944 9.29289 14.2069C9.10536 14.0194 9 13.765 9 13.4998V5.91379L7.707 7.20679C7.51947 7.39426 7.26516 7.49957 7 7.49957C6.73484 7.49957 6.48053 7.39426 6.293 7.20679Z" fill="black"/>
</svg>
