<svg width="24" height="24" viewBox="0 0 24 24" fill="none" xmlns="http://www.w3.org/2000/svg">
<path fill-rule="evenodd" clip-rule="evenodd" d="M12.0004 21.5999C14.5465 21.5999 16.9883 20.5885 18.7886 18.7881C20.589 16.9878 21.6004 14.546 21.6004 11.9999C21.6004 9.45382 20.589 7.01203 18.7886 5.21168C16.9883 3.41133 14.5465 2.3999 12.0004 2.3999C9.45431 2.3999 7.01251 3.41133 5.21217 5.21168C3.41182 7.01203 2.40039 9.45382 2.40039 11.9999C2.40039 14.546 3.41182 16.9878 5.21217 18.7881C7.01251 20.5885 9.45431 21.5999 12.0004 21.5999ZM10.4488 8.7515C10.2225 8.53291 9.91935 8.41196 9.60471 8.41469C9.29007 8.41743 8.9891 8.54363 8.76661 8.76612C8.54412 8.98861 8.41792 9.28958 8.41518 9.60422C8.41245 9.91886 8.5334 10.222 8.75199 10.4483L10.3036 11.9999L8.75199 13.5515C8.63738 13.6622 8.54596 13.7946 8.48307 13.941C8.42018 14.0874 8.38707 14.2449 8.38569 14.4042C8.38431 14.5636 8.41467 14.7216 8.475 14.869C8.53534 15.0165 8.62444 15.1505 8.73712 15.2632C8.84979 15.3758 8.98377 15.465 9.13125 15.5253C9.27872 15.5856 9.43674 15.616 9.59607 15.6146C9.75541 15.6132 9.91287 15.5801 10.0593 15.5172C10.2057 15.4543 10.3381 15.3629 10.4488 15.2483L12.0004 13.6967L13.552 15.2483C13.7783 15.4669 14.0814 15.5878 14.3961 15.5851C14.7107 15.5824 15.0117 15.4562 15.2342 15.2337C15.4567 15.0112 15.5829 14.7102 15.5856 14.3956C15.5883 14.0809 15.4674 13.7778 15.2488 13.5515L13.6972 11.9999L15.2488 10.4483C15.4674 10.222 15.5883 9.91886 15.5856 9.60422C15.5829 9.28958 15.4567 8.98861 15.2342 8.76612C15.0117 8.54363 14.7107 8.41743 14.3961 8.41469C14.0814 8.41196 13.7783 8.53291 13.552 8.7515L12.0004 10.3031L10.4488 8.7515Z" fill="#909090"/>
</svg>
