<svg width="24" height="24" viewBox="0 0 24 24" fill="none" xmlns="http://www.w3.org/2000/svg">
<path fill-rule="evenodd" clip-rule="evenodd" d="M5.15164 5.15159C5.37667 4.92663 5.68184 4.80025 6.00004 4.80025C6.31823 4.80025 6.6234 4.92663 6.84844 5.15159L12 10.3032L17.1516 5.15159C17.2623 5.03698 17.3947 4.94556 17.5412 4.88267C17.6876 4.81978 17.845 4.78668 18.0044 4.78529C18.1637 4.78391 18.3217 4.81427 18.4692 4.87461C18.6167 4.93494 18.7506 5.02405 18.8633 5.13672C18.976 5.24939 19.0651 5.38337 19.1254 5.53085C19.1858 5.67832 19.2161 5.83634 19.2147 5.99568C19.2134 6.15501 19.1803 6.31247 19.1174 6.45888C19.0545 6.60528 18.963 6.7377 18.8484 6.84839L13.6968 12L18.8484 17.1516C19.067 17.3779 19.188 17.681 19.1852 17.9957C19.1825 18.3103 19.0563 18.6113 18.8338 18.8338C18.6113 19.0563 18.3104 19.1825 17.9957 19.1852C17.6811 19.1879 17.378 19.067 17.1516 18.8484L12 13.6968L6.84844 18.8484C6.62211 19.067 6.31899 19.1879 6.00436 19.1852C5.68972 19.1825 5.38874 19.0563 5.16625 18.8338C4.94376 18.6113 4.81756 18.3103 4.81483 17.9957C4.81209 17.681 4.93305 17.3779 5.15164 17.1516L10.3032 12L5.15164 6.84839C4.92667 6.62336 4.80029 6.31819 4.80029 5.99999C4.80029 5.6818 4.92667 5.37663 5.15164 5.15159Z" fill="#252A2D"/>
</svg>
